<svg width="40" height="40" viewBox="0 0 40 40" fill="none" xmlns="http://www.w3.org/2000/svg">
<path d="M11.6667 5H8.33333C6.49238 5 5 6.49238 5 8.33333V11.6667" stroke="#E2E3E4" stroke-width="2" stroke-linecap="round" stroke-linejoin="round"/>
<path d="M28.334 5H31.6673C33.5083 5 35.0007 6.49238 35.0007 8.33333V11.6667" stroke="#E2E3E4" stroke-width="2" stroke-linecap="round" stroke-linejoin="round"/>
<path d="M26.666 13.3335V16.6668" stroke="#E2E3E4" stroke-width="2" stroke-linecap="round" stroke-linejoin="round"/>
<path d="M13.334 13.3335V16.6668" stroke="#E2E3E4" stroke-width="2" stroke-linecap="round" stroke-linejoin="round"/>
<path d="M15 26.6665C15 26.6665 16.6667 28.3332 20 28.3332C23.3333 28.3332 25 26.6665 25 26.6665" stroke="#E2E3E4" stroke-width="2" stroke-linecap="round" stroke-linejoin="round"/>
<path d="M20.0007 13.3335V21.6668H18.334" stroke="#E2E3E4" stroke-width="2" stroke-linecap="round" stroke-linejoin="round"/>
<path d="M11.6667 35.0002H8.33333C6.49238 35.0002 5 33.5078 5 31.6668V28.3335" stroke="#E2E3E4" stroke-width="2" stroke-linecap="round" stroke-linejoin="round"/>
<path d="M28.334 35.0002H31.6673C33.5083 35.0002 35.0007 33.5078 35.0007 31.6668V28.3335" stroke="#E2E3E4" stroke-width="2" stroke-linecap="round" stroke-linejoin="round"/>
</svg>
